HIERARCHY
ROOT Hips
{
	OFFSET 0.00 0.00 0.00
	CHANNELS 6 Xposition Yposition Zposition Yrotation Xrotation Zrotation
	JOINT LHipJoint
	{
		OFFSET	0.0000	0.0000	0.0000
		CHANNELS 3 Yrotation Xrotation Zrotation
		JOINT LeftUpLeg
		{
			OFFSET	1.0138	-0.0809	-0.0827
			CHANNELS 3 Yrotation Xrotation Zrotation
			JOINT LeftLeg
			{
				OFFSET	0.4110	-3.9095	0.3245
				CHANNELS 3 Yrotation Xrotation Zrotation
				JOINT LeftFoot
				{
					OFFSET	0.3810	-4.0555	-0.1470
					CHANNELS 3 Yrotation Xrotation Zrotation
					JOINT LeftToeBase
					{
						OFFSET	0.1396	-0.4462	1.3079
						CHANNELS 3 Yrotation Xrotation Zrotation
						End Site
						{
							OFFSET 0.0161 -0.0248 0.1809
						}
					}
				}
			}
		}
	}
	JOINT LowerBack
	{
		OFFSET	0.0000	0.7977	-0.3873
		CHANNELS 3 Yrotation Xrotation Zrotation
		JOINT Spine
		{
			OFFSET	0.0000	1.4131	0.1715
			CHANNELS 3 Yrotation Xrotation Zrotation
			JOINT Spine1
			{
				OFFSET	0.0000	1.4392	-0.1032
				CHANNELS 3 Yrotation Xrotation Zrotation
				JOINT LeftShoulder
				{
					OFFSET	0.2274	1.0382	0.4032
					CHANNELS 3 Yrotation Xrotation Zrotation
					JOINT LeftArm
					{
						OFFSET	1.4730	-0.2267	-0.0231
						CHANNELS 3 Yrotation Xrotation Zrotation
						JOINT LeftForeArm
						{
							OFFSET	1.6131	-1.8059	0.0081
							CHANNELS 3 Yrotation Xrotation Zrotation
							JOINT LeftHand
							{
								OFFSET	1.2197	-1.2423	1.6317
								CHANNELS 3 Yrotation Xrotation Zrotation
								JOINT LThumb
								{
									OFFSET	0.0109	-0.0753	0.4387
									CHANNELS 3 Yrotation Xrotation Zrotation
									End Site
									{
										OFFSET -0.2090 -0.0868 0.2097
									}
								}
								JOINT LeftFingerBase
								{
									OFFSET	0.1071	-0.1567	0.2607
									CHANNELS 3 Yrotation Xrotation Zrotation
									JOINT LeftHandFinger1
									{
										OFFSET	0.1706	-0.2492	0.6830
										CHANNELS 3 Yrotation Xrotation Zrotation
										End Site
										{
											OFFSET 0.0335 -0.1507 0.2071
										}
									}
								}
							}
						}
					}
				}
				JOINT Neck
				{
					OFFSET	0.0000	1.7498	0.2381
					CHANNELS 3 Yrotation Xrotation Zrotation
					JOINT Neck1
					{
						OFFSET	0.0000	0.5043	0.1959
						CHANNELS 3 Yrotation Xrotation Zrotation
						JOINT Head
						{
							OFFSET	0.0000	0.5044	0.1959
							CHANNELS 3 Yrotation Xrotation Zrotation
							End Site
							{
								OFFSET 0.0000 1.4798 -0.0693
							}
						}
					}
				}
				JOINT RightShoulder
				{
					OFFSET	-0.2274	1.0382	0.4032
					CHANNELS 3 Yrotation Xrotation Zrotation
					JOINT RightArm
					{
						OFFSET	-1.4730	-0.2267	-0.0231
						CHANNELS 3 Yrotation Xrotation Zrotation
						JOINT RightForeArm
						{
							OFFSET	-1.6131	-1.8059	0.0081
							CHANNELS 3 Yrotation Xrotation Zrotation
							JOINT RightHand
							{
								OFFSET	-1.2197	-1.2423	1.6317
								CHANNELS 3 Yrotation Xrotation Zrotation
								JOINT RThumb
								{
									OFFSET	-0.0109	-0.0753	0.4387
									CHANNELS 3 Yrotation Xrotation Zrotation
									End Site
									{
										OFFSET 0.2090 -0.0868 0.2097
									}
								}
								JOINT RightFingerBase
								{
									OFFSET	-0.1071	-0.1567	0.2607
									CHANNELS 3 Yrotation Xrotation Zrotation
									JOINT RightHandFinger1
									{
										OFFSET	-0.1706	-0.2492	0.6830
										CHANNELS 3 Yrotation Xrotation Zrotation
										End Site
										{
											OFFSET -0.0335 -0.1507 0.2071
										}
									}
								}
							}
						}
					}
				}
			}
		}
	}
	JOINT RHipJoint
	{
		OFFSET	0.0000	0.0000	0.0000
		CHANNELS 3 Yrotation Xrotation Zrotation
		JOINT RightUpLeg
		{
			OFFSET	-1.0138	-0.0809	-0.0827
			CHANNELS 3 Yrotation Xrotation Zrotation
			JOINT RightLeg
			{
				OFFSET	-0.4110	-3.9095	0.3245
				CHANNELS 3 Yrotation Xrotation Zrotation
				JOINT RightFoot
				{
					OFFSET	-0.3810	-4.0555	-0.1470
					CHANNELS 3 Yrotation Xrotation Zrotation
					JOINT RightToeBase
					{
						OFFSET	-0.1396	-0.4462	1.3079
						CHANNELS 3 Yrotation Xrotation Zrotation
						End Site
						{
							OFFSET -0.0161 -0.0248 0.1809
						}
					}
				}
			}
		}
	}
}
MOTION
Frames: 12
Frame Time: 0.0333333
-0.2867 8.4801 -0.9912 47.9258 -0.8920 -5.1676 0.0000 -0.0000 0.0000 35.7823 -17.3459 1.0436 1.6016 31.7771 2.4135 20.3661 -17.5154 -1.5249 -0.0000 -1.2570 -0.0000 0.0000 -0.0000 0.0000 3.0783 1.0477 4.0580 6.2264 1.9194 7.5999 -13.8984 3.4755 4.1785 7.6980 7.4858 -49.0502 26.3227 27.4529 4.3055 13.3130 7.6655 -21.0743 16.9033 -6.8003 30.7080 6.4994 16.4904 -0.9161 -7.9106 -1.2692 -4.1072 5.1191 0.8922 -5.1768 5.0599 0.5201 -5.3055 10.2989 -3.6016 -12.3119 3.8862 4.4334 -4.7413 -2.0209 1.1539 27.2247 -16.6140 18.8685 -0.6378 -15.3811 6.2813 8.2935 -15.2437 -8.6944 -29.4693 -4.4261 18.2681 2.8883 7.7871 -1.3956 4.0052 0.0000 -0.0000 0.0000 -8.6942 -8.1975 19.6530 -11.9097 14.9542 -6.8038 -29.3620 -11.4108 -5.4695 -0.0000 -0.3077 0.0000 
-0.2003 8.4894 -1.0659 50.4979 -0.8922 -5.1202 0.0000 -0.0000 0.0000 38.7347 -16.9836 -0.8822 3.5409 30.3176 4.8759 20.3261 -16.4108 -2.5277 0.0000 -1.1475 0.0000 0.0000 -0.0000 0.0000 2.1149 1.0536 3.9518 4.2977 1.9847 7.4669 -13.3455 3.5621 4.7378 6.1546 8.2174 -50.3337 27.0487 28.0272 4.6317 12.5908 9.9114 -21.4235 17.7003 -6.1293 31.0934 7.6231 15.2741 0.1153 -7.9426 -1.2364 -4.1337 5.4215 1.2090 -4.5718 5.4172 0.7965 -4.7566 12.0860 -3.0517 -13.3522 4.1593 4.4116 -4.6651 -2.0532 0.4839 26.6252 -16.1260 18.3947 -0.4909 -15.6469 4.2843 7.7732 -15.0896 -8.7687 -29.3669 -4.3241 18.3186 2.9795 7.7828 -1.4001 4.0016 0.0000 -0.0000 0.0000 -9.8203 -8.1457 17.5803 -11.9814 15.8329 -5.0738 -29.4323 -11.8114 -4.7823 0.0000 -0.2888 -0.0000 
-0.1054 8.4978 -1.1285 53.0710 -0.8923 -5.0832 0.0000 -0.0000 0.0000 40.8163 -16.3948 -1.8768 5.9743 28.8414 6.1919 18.8904 -15.7336 -2.8077 0.0000 -0.4534 0.0000 0.0000 -0.0000 0.0000 1.0939 1.0588 3.8729 2.2558 2.0527 7.3658 -12.5112 3.6779 5.2281 4.2140 8.9958 -51.3302 27.2394 28.1765 4.7185 12.0146 11.3714 -21.9098 17.9701 -5.6544 31.4840 8.2560 14.5603 0.6943 -7.9514 -1.2274 -4.1410 5.8149 1.6056 -3.9819 5.8676 1.1322 -4.2330 13.4736 -2.5125 -14.0979 4.3098 4.4005 -4.6590 -1.9853 0.0121 26.1564 -15.5975 17.8774 -0.3362 -15.7904 2.8104 7.4454 -14.7782 -8.9510 -29.1328 -4.0696 18.5386 3.2157 7.7999 -1.3826 4.0157 0.0000 -0.0000 0.0000 -10.9439 -7.7950 14.7832 -12.1244 16.6207 -1.8214 -29.5047 -12.6860 -4.7601 0.0000 -0.7339 -0.0000 
-0.0081 8.5047 -1.1772 55.6450 -0.8924 -5.0566 0.0000 -0.0000 0.0000 41.9687 -15.7383 -2.2422 7.2923 27.8851 6.3065 16.9151 -15.5732 -2.4689 -0.0000 -0.2601 0.0000 0.0000 -0.0000 0.0000 0.0702 1.0509 3.8682 0.2102 2.0953 7.3914 -11.7730 3.7726 5.5288 2.2328 9.3834 -51.7430 27.3813 28.2871 4.7833 11.8806 12.1109 -22.2270 17.6966 -5.3469 31.8591 8.2349 14.5941 0.6759 -7.9404 -1.2387 -4.1319 6.2712 2.0547 -3.4625 6.3751 1.5194 -3.7716 14.4596 -1.9766 -14.5027 4.0844 4.4206 -4.4989 -1.7758 -0.3854 25.6773 -15.0831 17.3699 -0.1901 -15.8126 2.0819 7.4300 -14.5056 -9.0975 -28.9422 -3.8559 18.7510 3.4169 7.8278 -1.3539 4.0388 0.0000 -0.0000 0.0000 -11.7258 -7.3519 11.9455 -12.3187 17.4259 1.6114 -29.4506 -13.4811 -5.1298 0.0000 -2.0346 0.0000 
0.0849 8.5096 -1.2103 58.2195 -0.8923 -5.0351 0.0000 -0.0000 0.0000 41.9888 -15.1639 -2.3238 6.1049 27.8409 5.2595 15.8384 -16.1310 -1.5687 -0.0000 -0.4328 0.0000 0.0000 -0.0000 0.0000 -0.8808 1.0247 3.9477 -1.6887 2.1005 7.5759 -11.5668 3.7984 5.6008 0.8039 9.1716 -51.4157 27.7529 28.5752 4.9543 12.4872 12.2114 -22.1935 17.2183 -5.1834 32.1227 7.7637 15.1523 0.2478 -7.9217 -1.2578 -4.1163 6.7150 2.5070 -3.0215 6.8564 1.9275 -3.3663 15.0409 -1.4589 -14.5346 3.4701 4.4781 -4.0476 -1.4465 -0.8335 25.1942 -14.7357 17.0248 -0.0939 -15.7904 2.2761 7.7845 -14.4555 -9.0230 -29.0004 -3.9003 18.7363 3.3775 7.8468 -1.3345 4.0544 0.0000 -0.0000 0.0000 -11.8336 -7.1072 9.7744 -12.4240 18.5774 3.7012 -29.2477 -13.6918 -4.7360 -0.0000 -4.0009 -0.0000 
0.1672 8.5129 -1.2248 60.7939 -0.8923 -5.0117 0.0000 -0.0000 0.0000 40.6150 -14.5985 -2.3494 4.0216 27.9786 4.0086 16.4094 -16.6654 -1.0264 -0.0000 -0.4328 -0.0000 0.0000 -0.0000 0.0000 -1.6868 0.9813 4.0907 -3.2981 2.0687 7.8945 -12.0281 3.7391 5.5480 0.2081 8.5136 -50.4462 28.2026 28.9202 5.1634 13.9492 11.7308 -21.8733 16.9112 -5.2121 32.1517 7.2199 15.7822 -0.2462 -7.9046 -1.2753 -4.1023 7.0530 2.9043 -2.6314 7.2137 2.3084 -2.9868 15.2042 -0.9975 -14.1993 2.7199 4.5628 -3.3821 -1.0603 -1.3189 24.8948 -14.6717 16.9611 -0.0764 -15.7686 3.3911 8.5059 -14.5965 -8.6862 -29.3422 -4.2276 18.4400 3.0724 7.8417 -1.3397 4.0502 0.0000 -0.0000 0.0000 -11.0276 -6.8570 8.7548 -12.5502 19.5966 3.6399 -27.7263 -13.6365 -3.8294 -0.0000 -5.9255 0.0000 
0.2357 8.5144 -1.2125 63.3680 -0.8924 -4.9875 0.0000 -0.0000 0.0000 37.6913 -14.0885 -2.2069 2.6148 28.0552 3.2154 17.9836 -16.9420 -1.1151 -0.0001 -0.4328 0.0000 0.0000 -0.0000 0.0000 -2.3032 0.9269 4.2727 -4.5294 2.0093 8.2969 -12.8756 3.6271 5.5352 0.2073 7.7599 -49.1036 28.2633 28.9666 5.1918 16.1038 10.7447 -21.4791 16.8675 -5.5219 31.8776 6.8324 16.2049 -0.6012 -7.8910 -1.2892 -4.0910 7.2035 3.1945 -2.2735 7.3642 2.6128 -2.6201 14.9355 -0.6282 -13.5623 2.1614 4.6413 -2.7380 -0.6386 -1.6972 24.9762 -14.8545 17.1430 -0.1265 -15.7155 5.2183 9.4899 -14.7155 -8.2552 -29.7762 -4.6273 18.0402 2.6970 7.8123 -1.3699 4.0259 0.0000 -0.0000 0.0000 -9.4110 -6.6778 8.9512 -12.7657 20.3251 1.7861 -25.0363 -13.2821 -2.3786 0.0000 -7.5095 -0.0000 
0.2889 8.5147 -1.1680 65.9414 -0.8924 -4.9707 0.0000 -0.0000 0.0000 33.4199 -13.6707 -1.7967 3.0084 27.9645 3.2866 19.2960 -16.8561 -1.7378 -0.0000 -0.4329 -0.0000 0.0000 -0.0000 0.0000 -2.7191 0.8723 4.4773 -5.3607 1.9407 8.7342 -13.6422 3.5266 5.6304 0.3299 7.1619 -47.6750 27.5267 28.4001 4.8500 18.6016 9.4066 -21.1888 16.8878 -6.1165 31.3684 6.5476 16.4609 -0.8704 -7.8798 -1.3007 -4.0817 7.1155 3.3458 -1.9698 7.2580 2.8079 -2.2967 14.2320 -0.3566 -12.7401 1.9598 4.6787 -2.3296 -0.1308 -1.8607 25.4391 -15.1255 17.4119 -0.2020 -15.5489 7.3906 10.5077 -14.6612 -7.9700 -30.0421 -4.8457 17.7978 2.4900 7.7736 -1.4096 3.9939 0.0000 -0.0000 0.0000 -7.3544 -6.3230 9.7342 -12.8730 20.6300 -0.5533 -21.4393 -12.9276 -0.9291 0.0000 -8.5584 -0.0000 
0.3272 8.5147 -1.0949 68.5148 -0.8925 -4.9686 0.0000 -0.0000 0.0000 28.3870 -13.3281 -1.1411 5.5047 27.5990 4.3286 19.4384 -16.3654 -2.6666 -0.0000 -0.4328 0.0000 0.0000 -0.0000 0.0000 -2.9467 0.8315 4.6912 -5.8146 1.8867 9.1638 -14.0338 3.4773 5.7430 0.2805 6.6937 -46.4008 25.9714 27.1716 4.1500 21.0626 7.9534 -21.0632 16.7578 -6.8111 30.8415 6.2198 16.7075 -1.1883 -7.8740 -1.3066 -4.0769 6.7746 3.3525 -1.7632 6.8836 2.8858 -2.0644 13.1132 -0.1545 -11.8490 2.0440 4.6726 -2.2197 0.4867 -1.8819 26.0644 -15.3504 17.6342 -0.2654 -15.2105 9.4493 11.2729 -14.5186 -7.9520 -30.0340 -4.7975 17.8310 2.5337 7.7475 -1.4364 3.9724 0.0000 -0.0000 0.0000 -5.3405 -5.5475 10.5404 -12.8569 20.3518 -2.1282 -17.9854 -13.0685 -0.3078 -0.0000 -9.0203 0.0000 
0.3494 8.5151 -0.9983 71.0896 -0.8924 -4.9772 0.0000 -0.0000 0.0000 23.4160 -13.0757 -0.3245 9.2005 26.9543 5.9379 18.3478 -15.5308 -3.6503 -0.0000 -0.4328 0.0000 0.0000 -0.0000 0.0000 -3.0024 0.8150 4.8881 -5.9233 1.8669 9.5401 -14.0928 3.4700 5.7301 0.0893 6.1622 -45.4815 23.9785 25.5330 3.2983 23.1385 6.6535 -21.0933 16.4820 -7.2965 30.5404 5.8589 16.9620 -1.5421 -7.8793 -1.3012 -4.0813 6.2026 3.2323 -1.6635 6.2680 2.8567 -1.9347 11.6393 0.0143 -10.9521 2.2286 4.6488 -2.3258 1.0898 -1.9462 26.5908 -15.5163 17.7977 -0.3128 -14.7513 10.9745 11.5890 -14.5059 -8.1365 -29.8580 -4.5937 18.0435 2.7257 7.7489 -1.4350 3.9736 0.0000 -0.0000 0.0000 -3.7057 -4.4062 11.1121 -10.4401 19.8557 -1.6827 -15.6879 -13.8785 -1.1459 0.0000 -8.8471 -0.0000 
0.3530 8.5160 -0.8842 73.6671 -0.8923 -4.9946 0.0000 -0.0000 0.0000 19.3115 -12.9828 0.5780 12.4229 26.2147 7.3510 16.6940 -14.5021 -4.4541 -0.0000 -0.4328 0.0000 0.0000 -0.0000 0.0000 -2.8989 0.8248 5.0427 -5.7122 1.8830 9.8156 -14.0518 3.4736 5.5402 -0.0391 5.4860 -45.0341 22.0724 23.8987 2.5336 24.5216 5.7134 -21.2554 16.2376 -7.3799 30.5493 5.6205 17.1034 -1.7816 -7.8959 -1.2842 -4.0950 5.4546 3.0175 -1.6341 5.4735 2.7380 -1.8712 9.9392 0.1653 -10.0673 2.3809 4.6281 -2.5190 1.4615 -2.1449 26.9039 -15.6862 17.9646 -0.3619 -14.3360 11.7817 11.4675 -14.7268 -8.3606 -29.6890 -4.4003 18.2557 2.9090 7.7752 -1.4079 3.9953 0.0000 -0.0000 0.0000 -2.5397 -3.0980 11.5296 -6.3217 19.0585 0.0893 -14.5236 -14.8477 -2.9897 -0.0000 -8.0934 0.0000 
0.3378 8.5174 -0.7583 76.2432 -0.8922 -5.0143 0.0000 -0.0000 0.0000 16.5290 -13.1214 1.5180 13.9202 25.6397 7.9937 15.1763 -13.4249 -4.9261 -0.0000 -0.4328 -0.0000 0.0000 -0.0000 0.0000 -2.6526 0.8504 5.1331 -5.2161 1.9154 9.9604 -14.0738 3.4673 5.2421 0.0476 4.8187 -44.9984 20.6370 22.6255 1.9917 25.0304 5.1739 -21.5152 16.1500 -7.1678 30.7362 5.5852 17.0772 -1.8265 -7.9149 -1.2648 -4.1108 4.6093 2.7468 -1.6344 4.5873 2.5510 -1.8351 8.2073 0.2892 -9.2209 2.4833 4.6136 -2.7109 1.4915 -2.3807 27.0685 -15.8945 18.1687 -0.4225 -14.1243 12.0195 11.1124 -15.0716 -8.5046 -29.6161 -4.2994 18.3657 3.0047 7.8098 -1.3724 4.0238 0.0000 -0.0000 0.0000 -1.8160 -1.8224 12.0045 -2.5128 17.8656 1.7722 -13.1959 -15.4387 -5.1610 -0.0000 -6.8878 0.0000 
